<?xml version="1.0" encoding="UTF-8"?>
<svg width="24px" height="24px" viewBox="0 0 24 24" version="1.1" xmlns="http://www.w3.org/2000/svg">
    <g stroke="none" stroke-width="1" fill="none" fill-rule="evenodd">
        <circle fill="#1976D2" cx="12" cy="12" r="12"/>
        <path d="M16,8 C17.1045695,8 18,8.8954305 18,10 C18,10.7397079 17.5978014,11.3878596 17,11.7323937 L17,12 C17,13.6568542 15.6568542,15 14,15 L10,15 C8.34314575,15 7,13.6568542 7,12 C7,10.4023191 8.24891996,9.09633275 9.82372721,9.00509269 C10.1275798,8.40219863 10.7757315,8 11.5154394,8 C12.0703841,8 12.5716475,8.24147533 12.9281401,8.62827808 C13.2846327,8.24147533 13.7858961,8 14.3408408,8 L16,8 Z" fill="#FFFFFF"/>
    </g>
</svg>